<svg xmlns="http://www.w3.org/2000/svg" width="19" height="19" viewBox="0 0 19 19"><g><g><path fill="#fff" d="M16.62 9.784c0-1.328.11-4.18-.368-5.382a3.082 3.082 0 0 0-1.735-1.736c-1.198-.473-4.055-.367-5.383-.367-1.328 0-4.18-.11-5.382.367a3.082 3.082 0 0 0-1.736 1.736c-.473 1.197-.367 4.054-.367 5.382 0 1.328-.11 4.18.367 5.383a3.082 3.082 0 0 0 1.736 1.735c1.198.473 4.054.367 5.382.367 1.328 0 4.18.11 5.383-.367a3.082 3.082 0 0 0 1.735-1.735c.477-1.198.367-4.055.367-5.383zm1.58 3.765c-.073 1.463-.407 2.758-1.475 3.826-1.067 1.072-2.363 1.406-3.826 1.475-1.508.086-6.026.086-7.534 0-1.463-.073-2.754-.407-3.826-1.475C.468 16.307.133 15.012.064 13.549c-.085-1.508-.085-6.026 0-7.534C.137 4.552.468 3.257 1.54 2.19 2.611 1.122 3.906.787 5.365.72c1.508-.086 6.026-.086 7.534 0 1.463.072 2.759.407 3.826 1.474 1.072 1.068 1.406 2.363 1.475 3.826.086 1.508.086 6.022 0 7.53zm-3.1-8.638a1.09 1.09 0 0 1-1.093 1.092A1.092 1.092 0 1 1 15.1 4.91zm-2.922 4.873A3.047 3.047 0 0 0 9.134 6.74 3.047 3.047 0 0 0 6.09 9.784a3.05 3.05 0 0 0 3.044 3.044 3.05 3.05 0 0 0 3.044-3.044zm1.638 0a4.674 4.674 0 0 1-4.682 4.682 4.674 4.674 0 0 1-4.682-4.682 4.674 4.674 0 0 1 4.682-4.682 4.674 4.674 0 0 1 4.682 4.682z"/></g></g></svg>