<svg xmlns="http://www.w3.org/2000/svg" width="148" height="53" viewBox="0 0 148 53"><defs><clipPath id="6hepa"><path d="M0 52.85V.053h147.695V52.85z"/></clipPath></defs><g><g><g/><g clip-path="url(#6hepa)"><path fill="#e92c55" d="M.002 26.45a9.893 9.893 0 0 1 8.133-9.807c2.584-.5 5.261.043 7.442 1.512.379.241.429.42.083.76a229.354 229.354 0 0 0-3.609 3.609.84.84 0 0 1-.942.246 3.866 3.866 0 1 0-.034 7.427.846.846 0 0 1 1.02.243 169.674 169.674 0 0 0 3.574 3.575c.305.302.315.484-.058.73a9.953 9.953 0 0 1-5.063 1.69 9.763 9.763 0 0 1-6.538-1.939A9.68 9.68 0 0 1 .002 26.45"/></g><g clip-path="url(#6hepa)"><path fill="#436cb4" d="M16.093 10.43a9.916 9.916 0 0 1 6.229-9.348A9.842 9.842 0 0 1 34.73 5.37c2.022 3.573 1.835 7.176-.409 10.644-.203.315-.35.332-.607.064a409.435 409.435 0 0 0-3.709-3.723.655.655 0 0 1-.192-.768 3.89 3.89 0 0 0-.482-3.48 3.888 3.888 0 0 0-3.09-1.667c-2.84-.116-4.568 2.588-3.933 4.766.208.52.048 1.113-.393 1.456a138.169 138.169 0 0 0-3.392 3.39c-.3.307-.457.273-.685-.072a9.768 9.768 0 0 1-1.745-5.55"/></g><g clip-path="url(#6hepa)"><path fill="#f3a61e" d="M42.065 36.43a9.672 9.672 0 0 1-5.297-1.586c-.625-.4-.623-.433-.104-.945 1.166-1.17 2.34-2.327 3.494-3.516a.766.766 0 0 1 .892-.214c1.514.45 2.91.144 3.985-1.002A3.696 3.696 0 0 0 45.826 25a3.817 3.817 0 0 0-4.698-2.256.863.863 0 0 1-.98-.257 187.646 187.646 0 0 0-3.576-3.571c-.313-.306-.309-.5.055-.735a10.021 10.021 0 0 1 6.532-1.648 9.728 9.728 0 0 1 5.691 2.477 9.6 9.6 0 0 1 3.348 6.787 9.734 9.734 0 0 1-3.49 8.268 9.59 9.59 0 0 1-6.643 2.366"/></g><g clip-path="url(#6hepa)"><path fill="#63c08c" d="M26.197 52.583a10.018 10.018 0 0 1-10.026-8.879 9.729 9.729 0 0 1 1.569-6.587c.351-.548.392-.548.846-.095 1.177 1.178 2.353 2.362 3.539 3.516.265.216.357.58.224.894a3.838 3.838 0 0 0 1.664 4.473c1.55.953 3.55.726 4.847-.548.975-.996 1.43-2.228 1.03-3.614a1.383 1.383 0 0 1 .46-1.582c1.094-1.025 2.13-2.109 3.192-3.163.474-.474.503-.479.882.101a9.996 9.996 0 0 1-6.549 15.308 7.352 7.352 0 0 1-1.678.176"/></g><g clip-path="url(#6hepa)"><path fill="#436cb4" d="M32.662 17.792a.553.553 0 0 1-.214.388l-6.035 6.041c-.238.238-.411.2-.632-.02-2.02-2.027-4.053-4.05-6.095-6.07-.26-.257-.214-.433.021-.668a394.738 394.738 0 0 0 3.642-3.653.537.537 0 0 1 .756-.081 3.864 3.864 0 0 0 3.95 0 .543.543 0 0 1 .76.077c1.195 1.214 2.4 2.413 3.601 3.618.124.09.212.22.246.368"/></g><g clip-path="url(#6hepa)"><path fill="#e92c55" d="M17.473 33.105a.486.486 0 0 1-.372-.201c-1.226-1.227-2.46-2.46-3.682-3.676a.533.533 0 0 1-.098-.754 3.761 3.761 0 0 0 0-4.023.478.478 0 0 1 .076-.672 908.055 908.055 0 0 0 3.713-3.714c.227-.236.4-.225.63 0a1311.62 1311.62 0 0 0 6.108 6.104c.229.15.229.487 0 .638a1178.81 1178.81 0 0 0-6.128 6.1c-.077.072-.16.138-.247.198"/></g><g clip-path="url(#6hepa)"><path fill="#f3a61e" d="M38.982 28.819a.483.483 0 0 1-.207.331c-1.227 1.23-2.46 2.46-3.677 3.683a.406.406 0 0 1-.68 0c-2.01-2.017-4.027-4.03-6.046-6.036-.236-.238-.203-.41.017-.63a1644.74 1644.74 0 0 0 6.078-6.08c.248-.252.428-.23.668 0a573.946 573.946 0 0 0 3.64 3.649c.205.137.259.418.118.619a3.933 3.933 0 0 0-.022 4.172c.03.06.066.116.094.18.013.036.02.073.017.112"/></g><g clip-path="url(#6hepa)"><path fill="#63c08c" d="M28.344 39.335c-.092-.04-.234-.098-.354-.165a3.982 3.982 0 0 0-3.906.077.468.468 0 0 1-.658-.098 403.117 403.117 0 0 0-3.695-3.68c-.227-.225-.246-.384 0-.621l6.063-6.057c.233-.236.405-.225.634 0 1.991 1.995 3.99 3.986 5.996 5.975.287.289.247.493-.021.756-1.188 1.171-2.36 2.355-3.539 3.515a.632.632 0 0 1-.52.298"/></g><g clip-path="url(#6hepa)"><path fill="#fff" d="M61.804 22.25V.326h9.482v3.618h-5.372v5.344h5.098v3.617h-5.098v5.727h5.372v3.618z"/></g><g clip-path="url(#6hepa)"><path fill="#fff" d="M77.095 3.944h1.453c.575 0 1.013.13 1.315.391.301.26.457.633.466 1.116a204.92 204.92 0 0 1 0 11.647c-.01.494-.165.872-.466 1.138-.302.264-.74.397-1.315.397h-1.453zm1.453 18.306c2.055 0 3.542-.439 4.46-1.315.917-.877 1.394-2.32 1.431-4.33a224.534 224.534 0 0 0 0-10.66c-.037-2-.514-3.437-1.432-4.31C82.09.764 80.603.327 78.547.327h-5.562V22.25z"/></g><g clip-path="url(#6hepa)"><path fill="#fff" d="M92.277 22.524c-1.38 0-2.485-.186-3.316-.555a3.543 3.543 0 0 1-1.822-1.767c-.384-.809-.6-1.871-.645-3.186-.026-.767-.047-1.642-.061-2.624a217.707 217.707 0 0 1 0-6.05c.014-.968.035-1.822.061-2.562.056-1.389.282-2.502.679-3.344.397-.84 1.009-1.447 1.835-1.822.828-.373 1.917-.56 3.269-.56 1.918 0 3.318.421 4.2 1.266.88.845 1.381 2.25 1.5 4.214.027.42.04.92.04 1.5s-.013 1.085-.04 1.514h-4.11c.026-.511.04-1.144.04-1.898 0-.753-.014-1.381-.04-1.884-.028-.438-.18-.776-.453-1.014-.274-.237-.653-.356-1.137-.356-.53 0-.934.119-1.213.356-.278.238-.432.576-.459 1.014a94.61 94.61 0 0 0-.123 3.103c-.028 1.11-.04 2.246-.04 3.405 0 1.161.012 2.295.04 3.405.027 1.11.068 2.145.123 3.103.027.449.18.794.46 1.036.278.241.682.363 1.212.363.52 0 .939-.122 1.253-.363.316-.242.491-.587.528-1.036.018-.21.03-.485.034-.828a40.43 40.43 0 0 0 0-1.027 11.814 11.814 0 0 0-.034-.83H92.55v-3.562h5.508c.045.83.064 1.742.055 2.733a61.91 61.91 0 0 1-.082 2.748c-.091 1.973-.583 3.384-1.473 4.233-.89.85-2.319 1.275-4.282 1.275"/></g><g clip-path="url(#6hepa)"><path fill="#fff" d="M100.06 22.25V.326h9.482v3.618h-5.372v5.344h5.097v3.617h-5.097v5.727h5.372v3.618z"/></g><g clip-path="url(#6hepa)"><path fill="#fff" d="M118.392 22.25V10.116h-1.103V8.744h1.103v-1.79c-.007-1.027.229-1.769.709-2.222.48-.454 1.25-.682 2.307-.682.21 0 .445.015.704.045.259.03.49.064.692.101v1.318a8.94 8.94 0 0 0-.659-.045 20.21 20.21 0 0 0-.714-.012c-.473 0-.813.102-1.018.304-.207.202-.306.56-.299 1.07v1.913h2.318v1.372h-2.318V22.25z"/></g><g clip-path="url(#6hepa)"><path fill="#fff" d="M126.53 21.046c.495 0 .847-.104 1.057-.31.21-.207.323-.565.339-1.074.022-.766.04-1.489.055-2.167a90.945 90.945 0 0 0 0-4.002c-.015-.674-.033-1.395-.055-2.16-.016-.511-.127-.87-.333-1.08-.207-.211-.561-.316-1.064-.316-.502 0-.859.105-1.07.315-.21.21-.325.57-.348 1.08-.022.766-.04 1.489-.05 2.167a114.946 114.946 0 0 0 0 4.012c.01.684.028 1.4.05 2.15.023.51.143.868.36 1.075.218.206.57.31 1.058.31m0 1.373c-.75 0-1.35-.105-1.8-.316a1.959 1.959 0 0 1-.986-1.007c-.206-.461-.328-1.063-.365-1.806a77.264 77.264 0 0 1-.05-1.812 112.737 112.737 0 0 1 0-3.934c.01-.65.027-1.262.05-1.84.037-.743.159-1.343.365-1.8.207-.458.536-.794.985-1.008.45-.214 1.051-.321 1.801-.321s1.349.107 1.796.321c.446.214.773.55.979 1.007.207.458.321 1.058.344 1.801a106.192 106.192 0 0 1 0 7.585c-.023.736-.137 1.334-.344 1.796-.206.462-.533.8-.979 1.013-.447.214-1.046.321-1.796.321"/></g><g clip-path="url(#6hepa)"><path fill="#fff" d="M131.875 22.25V8.744h1.745v1.339h.35c.119-.518.32-.877.6-1.08.282-.203.656-.304 1.12-.304.136 0 .27.004.406.01.135.008.248.012.338.012v1.395h-.72c-.661 0-1.147.119-1.458.355-.312.237-.523.61-.636 1.12V22.25z"/></g><g clip-path="url(#6hepa)"><path fill="#fff" d="M65.997 39.6l.397-5.81h.768l.397 5.81.493 4.85h-2.549zm-1.301 12.99l.492-5.015h3.18l.492 5.015h3.631l-2.863-21.924h-5.7L61.064 52.59z"/></g><g clip-path="url(#6hepa)"><path fill="#fff" d="M75.177 52.59v-18.8h-3.33v-3.124h10.208v3.125h-3.343V52.59z"/></g><g clip-path="url(#6hepa)"><path fill="#fff" d="M83.411 52.59V30.666h3.535v9.236h3.029v-9.236h3.535V52.59h-3.535v-9.565h-3.028v9.565z"/></g><g clip-path="url(#6hepa)"><path fill="#fff" d="M95.88 52.59V30.666h3.535v18.799h5.138v3.125z"/></g><g clip-path="url(#6hepa)"><path fill="#fff" d="M106.128 52.59V30.666h8.646v3.125h-5.11v6.11h4.837v3.124h-4.837v6.44h5.11v3.125z"/></g><g clip-path="url(#6hepa)"><path fill="#fff" d="M118.885 52.59v-18.8h-3.33v-3.124h10.208v3.125h-3.343V52.59z"/></g><g clip-path="url(#6hepa)"><path fill="#fff" d="M127.119 52.59V30.666h8.646v3.125h-5.11v6.11h4.837v3.124h-4.837v6.44h5.11v3.125z"/></g><g clip-path="url(#6hepa)"><path fill="#fff" d="M142.439 52.85c-1.818 0-3.118-.39-3.898-1.172-.782-.78-1.204-2.07-1.268-3.87-.01-.366-.016-.738-.021-1.118a19.59 19.59 0 0 1 .103-2.253h3.33c-.037.703-.058 1.4-.062 2.089-.005.69.016 1.331.062 1.926.045.484.207.854.486 1.11.279.255.706.383 1.281.383.548 0 .947-.128 1.2-.383.25-.256.408-.626.472-1.11.027-.357.048-.702.061-1.035.014-.333.014-.666 0-1a33.965 33.965 0 0 0-.061-1.076 3.107 3.107 0 0 0-.356-1.205c-.193-.347-.517-.58-.973-.7l-2.042-.507c-.886-.236-1.588-.573-2.103-1.007a3.609 3.609 0 0 1-1.11-1.637c-.224-.658-.35-1.433-.377-2.33a41.99 41.99 0 0 1-.007-1.301c.005-.411.012-.822.02-1.233.056-1.197.256-2.16.603-2.89a3.257 3.257 0 0 1 1.652-1.61c.754-.344 1.76-.515 3.021-.515 1.745 0 3.015.388 3.81 1.165.794.777 1.232 2.06 1.315 3.85.018.42.018.936 0 1.548a715.7 715.7 0 0 1-.056 1.767h-3.397c.027-.657.043-1.317.048-1.979a40.273 40.273 0 0 0-.035-1.98c-.008-.484-.162-.852-.458-1.103-.298-.251-.71-.376-1.24-.376-.567 0-.984.125-1.254.376s-.427.619-.473 1.103a18.402 18.402 0 0 0 0 3.179c.036.474.156.877.356 1.206.201.329.548.552 1.041.67l1.795.44c.95.218 1.693.555 2.227 1.007a3.779 3.779 0 0 1 1.15 1.691c.234.677.364 1.467.392 2.37.008.303.015.588.02.857.005.27.003.535-.007.796l-.027.815c-.082 1.8-.514 3.09-1.295 3.87-.78.781-2.09 1.171-3.925 1.171"/></g></g></g></svg>